<?xml version="1.0" encoding="utf-8"?>
<!-- Generator: Adobe Illustrator 23.0.3, SVG Export Plug-In . SVG Version: 6.00 Build 0)  -->
<svg version="1.1" xmlns="http://www.w3.org/2000/svg" xmlns:xlink="http://www.w3.org/1999/xlink" x="0px" y="0px"
	 viewBox="0 0 400.89 562.76" style="enable-background:new 0 0 400.89 562.76;" xml:space="preserve">
<style type="text/css">
	.st0{fill:#6898B7;}
	.st1{fill:#0EB8C0;}
	.st2{fill:url(#SVGID_1_);}
</style>
<g id="Layer_4">
	<path class="st0" d="M400.89,362.32c0,110.7-89.74,200.44-200.44,200.44S0,473.02,0,362.32S200.44-84.62,200.44,19.87
		C200.44,377.65,400.89,251.62,400.89,362.32z"/>
</g>
<g id="Layer_2">
	<path class="st1" d="M400.8,362.41c0,110.65-89.7,200.36-200.36,200.36S0.09,473.06,0.09,362.41S187.11,27.74,187.11,85.52
		C187.11,432.18,400.8,251.75,400.8,362.41z"/>
</g>
<g id="Layer_3">
	<linearGradient id="SVGID_1_" gradientUnits="userSpaceOnUse" x1="18.9544" y1="350.2556" x2="434.4164" y2="503.8515">
		<stop  offset="0.0106" style="stop-color:#ED1C24"/>
		<stop  offset="0.0755" style="stop-color:#E93F23"/>
		<stop  offset="0.2113" style="stop-color:#E28422"/>
		<stop  offset="0.325" style="stop-color:#DDB622"/>
		<stop  offset="0.4108" style="stop-color:#DAD421"/>
		<stop  offset="0.4588" style="stop-color:#D9E021"/>
		<stop  offset="0.5664" style="stop-color:#D1DD24"/>
		<stop  offset="0.7293" style="stop-color:#BDD62C"/>
		<stop  offset="0.9263" style="stop-color:#9BCB39"/>
		<stop  offset="1" style="stop-color:#8CC63F"/>
	</linearGradient>
	<path class="st2" d="M400.89,362.32c0,110.7-89.74,200.44-200.44,200.44S0,473.02,0,362.32s130.61-162.77,208.73-84.66
		C328.47,397.4,400.89,272.1,400.89,362.32z"/>
</g>
<g id="Layer_5">
</g>
</svg>
